<svg xmlns="http://www.w3.org/2000/svg" width="280" height="48" viewBox="0 0 280 48" fill="none">
  <defs>
    <linearGradient id="hwWmBg" x1="0" y1="0" x2="48" y2="48" gradientUnits="userSpaceOnUse">
      <stop offset="0" stop-color="#171B5E"></stop>
      <stop offset="1" stop-color="#0B0E2E"></stop>
    </linearGradient>
    <linearGradient id="hwWmStride" x1="0" y1="48" x2="48" y2="0" gradientUnits="userSpaceOnUse">
      <stop offset="0" stop-color="#F09708"></stop>
      <stop offset=".55" stop-color="#FFB347"></stop>
      <stop offset="1" stop-color="#00FFB2"></stop>
    </linearGradient>
  </defs>
  
  <g>
    <rect width="48" height="48" rx="12" fill="url(#hwWmBg)"></rect>
    <rect x="0.5" y="0.5" width="47" height="47" rx="11.5" fill="none" stroke="rgba(240,151,8,.3)"></rect>
    <g stroke="rgba(255,255,255,.06)" stroke-width=".8">
      <line x1="8" y1="34" x2="40" y2="34"></line>
      <line x1="8" y1="28" x2="40" y2="28"></line>
      <line x1="8" y1="22" x2="40" y2="22"></line>
    </g>
    <path d="M8 34 C 12 34, 14 32, 16.5 25 C 19 17, 22 15, 24 17 C 26 19, 28 22, 31.5 28 C 34 32, 36 34, 40 34" stroke="url(#hwWmStride)" stroke-width="2.2" stroke-linecap="round" fill="none"></path>
    <circle cx="24" cy="17" r="2.2" fill="#00FFB2"></circle>
    <line x1="8" y1="34" x2="40" y2="34" stroke="#5B3FA6" stroke-width="1.2" stroke-linecap="round"></line>
    <line x1="8" y1="29" x2="8" y2="39" stroke="#fff" stroke-width="1.4" stroke-linecap="round"></line>
    <line x1="40" y1="29" x2="40" y2="39" stroke="#fff" stroke-width="1.4" stroke-linecap="round"></line>
  </g>
  
  <text x="60" y="26" font-family="Pretendard,&#39;Apple SD Gothic Neo&#39;,system-ui,sans-serif" font-size="17" font-weight="800" fill="#fff" letter-spacing="-0.01em">H-WALKER</text>
  <text x="156" y="26" font-family="Pretendard,&#39;Apple SD Gothic Neo&#39;,system-ui,sans-serif" font-size="17" font-weight="800" fill="#F09708" letter-spacing="-0.01em">CORE</text>
  <text x="60" y="40" font-family="Pretendard,&#39;Apple SD Gothic Neo&#39;,system-ui,sans-serif" font-size="9" font-weight="600" fill="#6B7280" letter-spacing="0.22em">GAIT ANALYSIS ENGINE</text>
  
  <g transform="translate(222,12)">
    <rect width="46" height="14" rx="4" fill="rgba(91,63,166,.22)" stroke="rgba(91,63,166,.5)"></rect>
    <text x="23" y="10" text-anchor="middle" font-family="Pretendard,&#39;Apple SD Gothic Neo&#39;,system-ui,sans-serif" font-size="8" font-weight="700" fill="#9B82D6" letter-spacing="0.18em">ARLAB</text>
  </g>
</svg>