<svg xmlns="http://www.w3.org/2000/svg" width="340" height="56" viewBox="0 0 340 56" fill="none">
  <rect x="4" y="4" width="48" height="48" rx="12" fill="#fff"/>
  <rect x="4.5" y="4.5" width="47" height="47" rx="11.5" fill="none" stroke="rgba(11,14,46,.15)"/>
  <g stroke="rgba(11,14,46,.08)" stroke-width=".8">
    <line x1="12" y1="38" x2="44" y2="38"/>
    <line x1="12" y1="32" x2="44" y2="32"/>
    <line x1="12" y1="26" x2="44" y2="26"/>
  </g>
  <path d="M12 38 C 16 38, 18 36, 20.5 29 C 23 21, 26 19, 28 21 C 30 23, 32 26, 35.5 32 C 38 36, 40 38, 44 38" stroke="#F09708" stroke-width="2.4" stroke-linecap="round" fill="none"/>
  <circle cx="28" cy="21" r="2.2" fill="#0B0E2E"/>
  <line x1="12" y1="38" x2="44" y2="38" stroke="#0B0E2E" stroke-width="1.2" stroke-linecap="round" opacity=".85"/>
  <line x1="12" y1="33" x2="12" y2="43" stroke="#0B0E2E" stroke-width="1.4" stroke-linecap="round"/>
  <line x1="44" y1="33" x2="44" y2="43" stroke="#0B0E2E" stroke-width="1.4" stroke-linecap="round"/>
  <text x="66" y="30" font-family="Pretendard,'Apple SD Gothic Neo',system-ui,sans-serif" font-size="19" font-weight="800" fill="#0B0E2E" letter-spacing="-0.01em">H-WALKER</text>
  <text x="180" y="30" font-family="Pretendard,'Apple SD Gothic Neo',system-ui,sans-serif" font-size="19" font-weight="800" fill="#F09708" letter-spacing="-0.01em">CORE</text>
  <text x="66" y="44" font-family="Pretendard,'Apple SD Gothic Neo',system-ui,sans-serif" font-size="9" font-weight="600" fill="#4B5563" letter-spacing="0.22em">GAIT ANALYSIS ENGINE</text>
  <g transform="translate(278,16)">
    <rect width="50" height="16" rx="4" fill="rgba(240,151,8,.12)" stroke="rgba(240,151,8,.5)"/>
    <text x="25" y="11" text-anchor="middle" font-family="Pretendard,'Apple SD Gothic Neo',system-ui,sans-serif" font-size="8.5" font-weight="700" fill="#F09708" letter-spacing="0.22em">ARLAB</text>
  </g>
</svg>
